<svg width="24" height="24" viewBox="0 0 24 24" fill="none" xmlns="http://www.w3.org/2000/svg">
<path d="M20 10C20 16 12 22 12 22C12 22 4 16 4 10C4 7.87827 4.84285 5.84344 6.34315 4.34315C7.84344 2.84285 9.87827 2 12 2C14.1217 2 16.1566 2.84285 17.6569 4.34315C19.1571 5.84344 20 7.87827 20 10Z" fill="black" stroke="black" stroke-linecap="round" stroke-linejoin="round"/>
<path d="M11.6679 6.77813C11.7594 6.89063 11.8235 6.98125 11.8601 7.05C11.8967 7.11875 11.915 7.18437 11.915 7.24688C11.915 7.32187 11.8662 7.40937 11.7685 7.50937C11.677 7.60937 11.5855 7.65937 11.494 7.65937C11.3719 7.65937 11.2743 7.64062 11.2011 7.60313C11.1279 7.56562 11.0668 7.50625 11.018 7.425C10.9204 7.275 10.8014 7.14687 10.6611 7.04063C10.5207 6.92812 10.3011 6.87187 10.0021 6.87187C9.7458 6.87187 9.45291 6.93125 9.12342 7.05C8.80002 7.16875 8.56816 7.31562 8.42782 7.49062C8.30578 7.64687 8.199 7.88437 8.10747 8.20312C8.02205 8.52187 7.97934 8.83125 7.97934 9.13125C7.97934 9.49375 8.05561 9.82812 8.20815 10.1344C8.3668 10.4344 8.59256 10.675 8.88545 10.8563C9.18444 11.0375 9.54139 11.1281 9.95631 11.1281C10.1821 11.1281 10.4139 11.0844 10.6519 10.9969C10.896 10.9031 11.1065 10.7531 11.2834 10.5469H11.2743C11.3841 10.4281 11.5214 10.3687 11.6862 10.3687C11.7838 10.3687 11.8753 10.4125 11.9607 10.5C12.0523 10.5875 12.098 10.675 12.098 10.7625C12.098 10.8562 12.0828 10.9406 12.0523 11.0156C12.0279 11.0844 11.979 11.1625 11.9058 11.25C11.6557 11.5375 11.3597 11.7344 11.018 11.8406C10.6763 11.9469 10.2675 12 9.79156 12C9.37054 12 8.94342 11.8969 8.51019 11.6906C8.08307 11.4844 7.75357 11.2344 7.5217 10.9406C7.39967 10.7594 7.28068 10.5 7.16475 10.1625C7.05492 9.81875 7 9.54063 7 9.32812C7 8.78438 7.07932 8.26875 7.23797 7.78125C7.40272 7.2875 7.64679 6.89375 7.97018 6.6C8.18374 6.4 8.49188 6.25 8.8946 6.15C9.29732 6.05 9.66648 6 10.0021 6C10.4109 6 10.7312 6.05937 10.9631 6.17812C11.2011 6.29062 11.436 6.49063 11.6679 6.77813Z" fill="white"/>
<path d="M13.5494 6.02812C13.6654 6.02812 13.7691 6.05937 13.8606 6.12188C13.9583 6.18438 14.0162 6.29375 14.0345 6.45C14.1078 6.94375 14.1535 7.4375 14.1718 7.93125C14.1962 8.41875 14.2084 8.97188 14.2084 9.59062C14.2084 9.85312 14.1871 10.3313 14.1444 11.025C14.4128 11.05 14.6203 11.0625 14.7668 11.0625C14.8705 11.0625 15.1054 11.0469 15.4715 11.0156C15.6851 10.9844 15.8712 10.9688 16.0298 10.9688C16.1763 10.9688 16.3105 10.9844 16.4325 11.0156C16.5546 11.0406 16.6797 11.0844 16.8078 11.1469C16.9359 11.2219 17 11.3375 17 11.4938C17 11.6188 16.9603 11.7313 16.881 11.8313C16.8078 11.9313 16.7193 11.9813 16.6156 11.9813C16.5424 11.9813 16.4264 11.9688 16.2678 11.9438C15.981 11.9 15.7064 11.8781 15.444 11.8781C15.3586 11.8781 15.261 11.8844 15.1512 11.8969C15.0474 11.9031 14.9712 11.9063 14.9223 11.9063C14.7759 11.925 14.6295 11.9344 14.483 11.9344C14.184 11.9344 13.9156 11.9188 13.6776 11.8875C13.5555 11.875 13.4335 11.8281 13.3115 11.7469C13.1894 11.6594 13.1284 11.5344 13.1284 11.3719C13.1284 11.2781 13.1406 11.0375 13.165 10.65C13.2077 10.0063 13.2291 9.51562 13.2291 9.17812C13.2291 8.91562 13.2169 8.64062 13.1925 8.35312C13.1681 8.06562 13.1528 7.88437 13.1467 7.80937C13.0918 7.27812 13.0644 6.84062 13.0644 6.49687C13.0644 6.33437 13.101 6.21563 13.1742 6.14062C13.2535 6.06562 13.3786 6.02812 13.5494 6.02812Z" fill="white"/>
</svg>
